<svg width="86" height="86" viewBox="0 0 86 86" fill="none" xmlns="http://www.w3.org/2000/svg">
<rect width="85.6212" height="85.6212" rx="10" fill="#010327"/>
<path d="M47.3604 19.5706C49.4587 19.5706 51.291 20.0139 52.8573 20.9004C54.4236 21.787 55.6353 22.9544 56.4923 24.4025C57.3494 25.8802 57.7779 27.5056 57.7779 29.2788L57.7779 55.0422C52.4896 55.0422 48.2027 50.7552 48.2027 45.467V29.1901C48.2027 28.6286 48.0106 28.1262 47.6264 27.6829C47.2126 27.2692 46.7102 27.0623 46.1192 27.0623H45.4099C41.2723 27.0623 37.9182 23.7081 37.9182 19.5706L47.3604 19.5706Z" fill="#FECE00"/>
<path d="M38.5503 66.0507C36.452 66.0507 34.6197 65.6074 33.0534 64.7208C31.4871 63.8342 30.2754 62.6669 29.4184 61.2188C28.5613 59.7411 28.1328 58.1157 28.1328 56.3425V29.3559C33.4211 29.3559 37.708 33.6428 37.708 38.9311V56.4311C37.708 56.9926 37.9001 57.4951 38.2843 57.9384C38.6981 58.3521 39.2005 58.559 39.7915 58.559H40.5008C44.6384 58.559 47.9925 61.9131 47.9925 66.0507H38.5503Z" fill="#FECE00"/>
</svg>
