<svg width="21" height="21" viewBox="0 0 21 21" fill="none" xmlns="http://www.w3.org/2000/svg">
<path d="M16.8616 4.66373C15.6978 4.12123 14.4378 3.72748 13.1253 3.49998C13.1138 3.49961 13.1024 3.50177 13.0918 3.50631C13.0812 3.51084 13.0718 3.51764 13.0641 3.52623C12.9066 3.81498 12.7228 4.19123 12.6003 4.47998C11.2082 4.26998 9.79247 4.26998 8.40035 4.47998C8.27785 4.18248 8.0941 3.81498 7.92785 3.52623C7.9191 3.50873 7.89285 3.49998 7.8666 3.49998C6.5541 3.72748 5.30285 4.12123 4.13035 4.66373C4.1216 4.66373 4.11285 4.67248 4.1041 4.68123C1.7241 8.24248 1.06785 11.7075 1.3916 15.1375C1.3916 15.155 1.40035 15.1725 1.41785 15.1812C2.99285 16.3362 4.5066 17.0362 6.00285 17.5C6.0291 17.5087 6.05535 17.5 6.0641 17.4825C6.4141 17.0012 6.7291 16.4937 7.00035 15.96C7.01785 15.925 7.00035 15.89 6.96535 15.8812C6.4666 15.6887 5.9941 15.4612 5.53035 15.1987C5.49535 15.1812 5.49535 15.1287 5.5216 15.1025C5.61785 15.0325 5.7141 14.9537 5.81035 14.8837C5.82785 14.8662 5.8541 14.8662 5.8716 14.875C8.8816 16.2487 12.1278 16.2487 15.1028 14.875C15.1203 14.8662 15.1466 14.8662 15.1641 14.8837C15.2603 14.9625 15.3566 15.0325 15.4528 15.1112C15.4878 15.1375 15.4878 15.19 15.4441 15.2075C14.9891 15.4787 14.5078 15.6975 14.0091 15.89C13.9741 15.8987 13.9653 15.9425 13.9741 15.9687C14.2541 16.5025 14.5691 17.01 14.9103 17.4912C14.9366 17.5 14.9628 17.5087 14.9891 17.5C16.4941 17.0362 18.0078 16.3362 19.5828 15.1812C19.6003 15.1725 19.6091 15.155 19.6091 15.1375C19.9941 11.1737 18.9703 7.73498 16.8966 4.68123C16.8878 4.67248 16.8791 4.66373 16.8616 4.66373ZM7.45535 13.0462C6.5541 13.0462 5.8016 12.215 5.8016 11.1912C5.8016 10.1675 6.5366 9.33623 7.45535 9.33623C8.38285 9.33623 9.11785 10.1762 9.1091 11.1912C9.1091 12.215 8.3741 13.0462 7.45535 13.0462ZM13.5541 13.0462C12.6528 13.0462 11.9003 12.215 11.9003 11.1912C11.9003 10.1675 12.6353 9.33623 13.5541 9.33623C14.4816 9.33623 15.2166 10.1762 15.2078 11.1912C15.2078 12.215 14.4816 13.0462 13.5541 13.0462Z" fill="#F7F7F7"/>
</svg>
