<svg width="12" height="18" viewBox="0 0 12 18" fill="none" xmlns="http://www.w3.org/2000/svg">
<path d="M7.70019 0.314453C8.48439 0.314453 9.1692 0.480131 9.75459 0.811486C10.34 1.14284 10.7928 1.57912 11.1131 2.12034C11.4335 2.6726 11.5936 3.28008 11.5936 3.94279L11.5936 13.5716C9.61719 13.5716 8.01498 11.9694 8.01498 9.99296V3.90966C8.01498 3.6998 7.94318 3.51203 7.79959 3.34635C7.64496 3.19172 7.45719 3.1144 7.23629 3.1144H6.97121C5.42484 3.1144 4.17126 1.86082 4.17126 0.314453L7.70019 0.314453Z" fill="#F7F7F7"/>
<path d="M4.40758 17.6859C3.62338 17.6859 2.93857 17.5202 2.35318 17.1888C1.76779 16.8575 1.31493 16.4212 0.994625 15.88C0.674315 15.3277 0.51416 14.7202 0.51416 14.0575V3.97158C2.49059 3.97158 4.09279 5.57379 4.09279 7.55022V14.0907C4.09279 14.3005 4.16459 14.4883 4.30818 14.654C4.46281 14.8086 4.65058 14.8859 4.87148 14.8859H5.13656C6.68293 14.8859 7.93651 16.1395 7.93651 17.6859H4.40758Z" fill="#F7F7F7"/>
</svg>
