<svg width="62" height="68" viewBox="0 0 62 68" fill="none" xmlns="http://www.w3.org/2000/svg">
<path d="M31 0C31 0 32.4141 16.9294 32.6795 30.0633C40.3395 22.9386 50.5206 14.7668 50.5206 14.7668C50.5206 14.7668 42.2601 24.7945 35.0479 32.3527C46.9545 32.6395 62 34 62 34C62 34 46.9249 35.3632 35.0127 35.6482C42.2248 43.2063 50.4847 53.2334 50.4847 53.2334C50.4847 53.2334 40.3347 45.0865 32.6789 37.9696C32.4117 51.0988 31 68 31 68C31 68 29.5906 51.1269 29.3218 38.0023C21.6701 45.1115 11.5511 53.2334 11.5511 53.2334C11.5511 53.2334 19.8105 43.207 27.0224 35.649C15.1048 35.3659 0 34 0 34C0 34 15.0751 32.6368 26.9872 32.3518C19.7751 24.7937 11.5153 14.7668 11.5153 14.7668C11.5153 14.7668 21.6653 22.9136 29.3211 30.0305C29.5883 16.9013 31 0 31 0Z" fill="url(#paint0_radial_61_253)"/>
<defs>
<radialGradient id="paint0_radial_61_253" cx="0" cy="0" r="1" gradientUnits="userSpaceOnUse" gradientTransform="translate(31 32.725) rotate(57.1011) scale(42.0125 32.6791)">
<stop stop-color="white"/>
<stop offset="1" stop-color="#3A3A3A" stop-opacity="0.73"/>
</radialGradient>
</defs>
</svg>
